<svg xmlns="http://www.w3.org/2000/svg" id="Layer_1" viewBox="0 0 256 256"><style>.st6{fill-rule:evenodd;clip-rule:evenodd}.st19,.st6{fill:#fff}</style><linearGradient id="SVGID_1_" x1="32.485" x2="116.073" y1="197.082" y2="145.494" gradientUnits="userSpaceOnUse"><stop offset="0" stop-color="#867f32"/><stop offset="1" stop-color="#766d2c"/></linearGradient><path fill="url(#SVGID_1_)" d="M26 171.55c-6.41-25.19.61-50.55 25.79-65.09 17.3-9.99 38.07-14.47 59.55-15.37.76-.04 1.43.24 1.95.8s.75 1.24.66 2l-2.27 20.7c-.13 1.15-.97 2.04-2.1 2.22-5.22.84-10.31 2.02-15.14 3.62v-.01c-3.87 1.27-7.63 2.81-11.23 4.69l-.04.01-.38.2-.03.01-.18.1-.2.11-.02.01-.18.1-.21.12-.01.01-.19.1-.2.12h-.02l-.19.11-.2.12-.01.01-.19.12-.21.11-.09.06-.09.06-.01.01-.08.05-.09.05-.03.02-.06.04-.09.06-.05.02-.05.03-.09.06-.06.04-.04.02-.08.01-.08.05-.01.01-.09.05-.09.05-.09.06-.09.06v.01l-.08.05-.09.06-.03.02-.14.1-.04.02-.13.09-.06.04-.03.01c-.17.12-.34.24-.5.35l-.02.01c-.99.68-1.9 1.39-2.75 2.14l.01-.01c-1.87 1.63-3.45 3.41-4.76 5.37 2.01 4.89 4.28 9.72 6.77 14.48.35.67.92 1.12 1.67 1.28.74.18 1.45.03 2.06-.42l16.79-12.33c.93-.67 1.28-1.85.87-2.93-1.22-3.2-2.27-6.41-3.16-9.63 8.94 1.6 18.15 8.29 24.07 18.55 5.93 10.26 7.12 21.58 4.03 30.12-2.29-2.32-4.48-4.78-6.59-7.37a2.5 2.5 0 0 0-2.97-.72l-19.06 8.38c-.7.3-1.18.84-1.4 1.57-.22.73-.13 1.45.28 2.09 9.41 14.83 20.65 28.04 33.88 37.83-2.97 2.2-6.04 4.22-9.21 6.05-25.18 14.54-50.66 7.94-69.26-10.2-12.05 2.94-24.03-.79-29.45-10.17-5.42-9.36-2.66-21.61 5.91-30.57zm102 7.06c3.73 3.33 7.75 6.32 12.06 8.82 4.24 2.44 8.53 3.84 12.8 4.11 3.18-4.13 6.18-8.46 9.02-12.93.41-.65.51-1.36.28-2.09-.22-.74-.7-1.27-1.4-1.57l-19.06-8.38c-1.06-.46-2.25-.18-2.97.72-3.35 4.11-6.93 7.91-10.73 11.32z"/><radialGradient id="SVGID_2_" cx="84.841" cy="164.192" r="32.744" gradientTransform="translate(-1.032 -1.032) scale(1.0081)" gradientUnits="userSpaceOnUse"><stop offset="0" stop-color="#f4e247"/><stop offset="1" stop-color="#867f32"/></radialGradient><path fill="url(#SVGID_2_)" fill-rule="evenodd" d="M95.36 196l6.79-5.75c-2.81-3.74-5.49-7.63-8.03-11.63-.41-.65-.51-1.36-.28-2.09.22-.74.7-1.27 1.4-1.57l19.06-8.38c1.06-.46 2.25-.18 2.97.72.85 1.04 1.71 2.06 2.59 3.06.3-1.34.48-2.71.55-4.06.38-6.67-1.64-13.49-4.96-19.23-3.31-5.74-8.21-10.9-14.17-13.91-1.21-.61-2.48-1.14-3.8-1.56.45 1.34.93 2.68 1.44 4.02.41 1.08.06 2.25-.87 2.93l-16.79 12.33c-.61.45-1.32.6-2.06.42-.75-.17-1.32-.61-1.67-1.28-2.24-4.29-4.3-8.62-6.16-13l-8.35 3c-1.22 3.81-1.67 7.85-1.45 11.98l30.18 8.76-7.5 30.52c3.47 2.24 7.2 3.87 11.11 4.72z" clip-rule="evenodd"/><linearGradient id="SVGID_3_" x1="89.212" x2="48.693" y1="166.272" y2="184.329" gradientUnits="userSpaceOnUse"><stop offset="0" stop-color="#f4e247"/><stop offset="1" stop-color="#867f32"/></linearGradient><path fill="url(#SVGID_3_)" fill-rule="evenodd" d="M62.56 206.26c3.42-.32 6.81-.97 10.05-1.85l-1.72-6.44c-2.19 3.08-4.99 5.9-8.33 8.29zm9.12-9.45h8.61l8.44-34.31-33.93-9.84-4.31 7.46c9.75-.52 18.67 3.37 23.14 11.1 4.47 7.72 3.37 17.4-1.95 25.59zm-22.59-36.59l-4.71-4.71c-2.4 2.36-4.66 4.97-6.64 7.77 3.74-1.69 7.59-2.7 11.35-3.06z" clip-rule="evenodd"/><radialGradient id="SVGID_4_" cx="63.12" cy="177.369" r="111.346" gradientTransform="matrix(.8596 -.5267 .3416 .5575 -52.24 112.134)" gradientUnits="userSpaceOnUse"><stop offset="0" stop-color="#f1e64b"/><stop offset="1" stop-color="#c1b63b"/></radialGradient><path fill="url(#SVGID_4_)" fill-rule="evenodd" d="M61.66 151.99c-.63-11.7 4.17-22.7 16.64-29.9 8.79-5.07 18.66-8.16 28.65-9.94l1.74-15.86c-18.76 1.08-37.98 5.13-54.3 14.55-23.34 13.48-29.2 36.64-23.44 59.38 2.82-6.36 7.44-12.65 13.54-18.23l4.98 4.98 4.21-7.29 7.98 2.31zm45.2 44.21c-8.16 1.44-15.83-.57-22.51-4.93l-1.98 8.06h-8.42l1.82 6.8c-7.88 2.49-15.64 3.35-22.55 2.62 16.81 16.36 39.79 22.86 63.13 9.38 2.59-1.5 5.11-3.13 7.55-4.88-6.13-5-11.8-10.76-17.04-17.05zm34.63-24.23c-2.95 3.51-6.13 6.86-9.54 9.96 2.57 2.02 5.28 3.87 8.11 5.51 2.4 1.39 4.82 2.43 7.24 3.13 3.14-3.94 6.06-8.02 8.8-12.18l-14.61-6.42z" clip-rule="evenodd"/><radialGradient id="SVGID_5_" cx="44.89" cy="191.046" r="88.58" gradientTransform="translate(-1.032 -1.032) scale(1.0081)" gradientUnits="userSpaceOnUse"><stop offset="0" stop-color="#fff" stop-opacity=".6"/><stop offset="1" stop-color="#fff" stop-opacity="0"/></radialGradient><path fill="url(#SVGID_5_)" fill-rule="evenodd" d="M66.03 208.4c-4.46.66-8.78.78-12.81.35 3.64 3.55 7.58 6.63 11.75 9.15 7.38 4.34 15.41 6.97 23.7 7.45 8.92.4 18.27-1.78 27.69-7.22 2.59-1.5 5.11-3.13 7.55-4.88-1.06-.87-2.11-1.77-3.14-2.68-19.33 10.86-39.14 8.48-54.74-2.17zM146 190.16c.43.15.86.28 1.29.41 2.93-3.77 5.67-7.68 8.23-11.67-2.98 3.89-6.15 7.66-9.52 11.26zm-82.98-78.77c12.25-7.44 26.11-12.03 40.15-14.69-4.32.39-8.65.94-12.94 1.7-12.95 2.46-25.59 6.69-36.77 13.48-16.73 10.16-24.36 26.01-24.54 43.03.05 5.05.76 10.19 2.06 15.31 1.64-3.69 3.89-7.37 6.68-10.89-1.32-18.41 6.42-36.44 25.36-47.94z" clip-rule="evenodd"/><radialGradient id="SVGID_6_" cx="35.913" cy="182.101" r="29.151" gradientTransform="translate(-1.032 -1.032) scale(1.0081)" gradientUnits="userSpaceOnUse"><stop offset="0" stop-color="#f4e247"/><stop offset="1" stop-color="#867f32"/></radialGradient><path fill="url(#SVGID_6_)" fill-rule="evenodd" d="M24.46 199.6c-5.51-9.54.05-23.07 12.42-30.21 12.37-7.14 26.87-5.19 32.38 4.35 5.51 9.55-.05 23.07-12.42 30.22-12.38 7.13-26.87 5.18-32.38-4.36z" clip-rule="evenodd"/><path d="M64.69 162.89l24.04-.39-12.36 20.62c.23-4.16-.63-8.24-2.74-11.9-2.1-3.66-5.21-6.45-8.94-8.33z" class="st6"/><linearGradient id="SVGID_7_" x1="147.194" x2="209.293" y1="139.447" y2="209.966" gradientUnits="userSpaceOnUse"><stop offset="0" stop-color="#06608b"/><stop offset="1" stop-color="#005383"/></linearGradient><path fill="url(#SVGID_7_)" d="M230 171.55c6.41-25.19-.61-50.55-25.79-65.09a95.57 95.57 0 0 0-9.75-4.91c-1.84 16.42-7.68 32.82-15.85 48.45-.35.67-.92 1.12-1.67 1.28-.74.18-1.45.03-2.06-.42l-16.79-12.33a2.485 2.485 0 0 1-.87-2.93c1.21-3.2 2.28-6.43 3.17-9.65-8.99 1.55-18.26 8.25-24.22 18.58-5.93 10.26-7.12 21.58-4.03 30.12 2.29-2.32 4.48-4.78 6.59-7.37.72-.89 1.91-1.18 2.97-.72l19.06 8.38c.7.3 1.18.84 1.4 1.57.22.73.13 1.45-.28 2.09-2.84 4.47-5.84 8.8-9.02 12.93-2.32-.16-4.66-.63-6.98-1.44l-.04-.01-.06-.02-.09-.03c-.18-.07-.35-.13-.54-.2l-.09-.03-.02-.01-.07-.03-.18-.07-.09-.04-.07-.03-.03-.01-.09-.04-.09-.03-.09-.04-.09-.04-.02-.01-.25-.11-.09-.04-.05-.02-.04-.02-.09-.05-.07-.03h-.02l-.09-.05-.09-.04-.09-.04-.09-.04-.02-.01-.07-.04-.09-.03-.04-.02-.05-.03-.1-.04-.05-.03-.04-.01-.09-.04-.07-.04-.02-.01-.09-.05-.09-.04h-.01l-.09-.05-.09-.05-.01-.01-.08-.04-.09-.05-.03-.02-.06-.03-.09-.05-.05-.03-.05-.02-.09-.05-.09-.04-.1-.06-.08-.04-.01-.01-.1-.05-.09-.05h-.01l-.08-.05-.1-.05-.02-.01-.07-.04-.09-.04-.03-.03-.06-.03-.09-.06-.05-.03-.04-.02-.1-.05-.06-.04-.03-.01-.1-.06-.08-.04-.01-.01-.09-.06-.09-.05-.2-.12-.19-.12h-.01l-.2-.12-.19-.12-.02-.01-.2-.13-.18-.11-.01-.01c-.26-.15-.52-.31-.77-.47l-.02-.02-.37-.23-.03-.02c-3.42-2.18-6.64-4.66-9.67-7.37h.04c-3.8-3.41-7.37-7.22-10.72-11.32a2.5 2.5 0 0 0-2.97-.72l-19.06 8.38c-.7.3-1.18.84-1.4 1.57-.22.73-.13 1.45.28 2.09 11.52 18.15 25.79 33.89 43.09 43.88 25.18 14.54 50.65 7.94 69.26-10.2 12.05 2.94 24.03-.79 29.45-10.17 5.4-9.19 2.64-21.44-5.93-30.4zm-69.68-79.12c1.98 3.89 2.95 8.39 2.95 13.39 0 4.91-.57 9.83-1.57 14.65-4.88-1.62-10.01-2.81-15.28-3.66-1.14-.18-1.97-1.07-2.1-2.22l-2.28-20.7c-.09-.76.14-1.45.67-2 .52-.55 1.19-.83 1.95-.8 5.28.23 10.51.66 15.66 1.34zm-21.47 94.29c-.26-.15-.52-.31-.77-.47l.77.47z"/><radialGradient id="SVGID_8_" cx="153.745" cy="142.572" r="34.466" gradientTransform="translate(-1.032 -1.032) scale(1.0081)" gradientUnits="userSpaceOnUse"><stop offset="0" stop-color="#70b5e3"/><stop offset="1" stop-color="#005379"/></radialGradient><path fill="url(#SVGID_8_)" fill-rule="evenodd" d="M160.64 196l-6.79-5.75c2.81-3.74 5.49-7.63 8.03-11.63.41-.65.51-1.36.28-2.09-.22-.74-.7-1.27-1.4-1.57l-19.06-8.38c-1.06-.46-2.25-.18-2.97.72-.85 1.04-1.71 2.06-2.59 3.06-.3-1.34-.49-2.71-.56-4.06-.38-6.67 1.65-13.49 4.96-19.23s8.21-10.9 14.17-13.91c1.26-.63 2.59-1.19 3.96-1.6-.45 1.35-.94 2.7-1.45 4.06-.41 1.08-.06 2.25.87 2.93l16.79 12.33c.61.45 1.32.6 2.06.42.75-.17 1.31-.61 1.67-1.28a181.6 181.6 0 0 0 6.14-12.95l8.22 2.95c1.23 3.81 1.68 7.85 1.46 11.98l-30.19 8.76 7.51 30.52c-3.47 2.24-7.2 3.87-11.11 4.72z" clip-rule="evenodd"/><linearGradient id="SVGID_9_" x1="161.617" x2="203.085" y1="160.179" y2="183.036" gradientUnits="userSpaceOnUse"><stop offset="0" stop-color="#70b5e3"/><stop offset="1" stop-color="#005379"/></linearGradient><path fill="url(#SVGID_9_)" fill-rule="evenodd" d="M193.44 206.26c-3.42-.32-6.81-.97-10.05-1.85l1.72-6.44c2.19 3.08 4.99 5.9 8.33 8.29zm-9.12-9.45h-8.62l-8.43-34.31 33.93-9.84 4.31 7.46c-9.75-.52-18.68 3.37-23.14 11.1-4.47 7.72-3.38 17.4 1.95 25.59zm22.59-36.59l4.71-4.71c2.39 2.36 4.66 4.97 6.64 7.77-3.75-1.69-7.59-2.7-11.35-3.06z" clip-rule="evenodd"/><path d="M191.3 162.89l-24.03-.39 12.35 20.62c-.23-4.16.63-8.24 2.74-11.9 2.11-3.66 5.22-6.45 8.94-8.33z" class="st6"/><radialGradient id="SVGID_10_" cx="203.222" cy="186.276" r="107.038" gradientTransform="matrix(.8333 .5673 -.3689 .5418 103.21 -29.479)" gradientUnits="userSpaceOnUse"><stop offset="0" stop-color="#3e9dcb"/><stop offset="1" stop-color="#308dbe"/></radialGradient><path fill="url(#SVGID_10_)" fill-rule="evenodd" d="M180.31 206.13l1.83-6.8h-8.41l-1.98-8.06c-9.82 6.4-21.74 7.75-34.22.54-8.78-5.07-16.4-12.08-22.93-19.84l-14.61 6.42c10.32 15.71 23.43 30.33 39.75 39.75 23.35 13.48 46.33 6.97 63.14-9.38-6.92.73-14.68-.13-22.57-2.63zm21.37-95.29a91.346 91.346 0 0 0-7.94-4.07c-1.27 7.83-3.41 15.63-6.24 23.33 5.27 6.33 7.35 13.95 6.93 21.89l7.96-2.32 4.21 7.29 4.98-4.98c6.1 5.57 10.73 11.87 13.54 18.23 5.76-22.73-.09-45.9-23.44-59.37zm-39.1 4.61c.45-3.19.69-6.41.69-9.62 0-2.84-.31-5.51-.95-8.01-4.97-.75-9.97-1.24-14.94-1.53l1.74 15.86c4.54.8 9.06 1.88 13.46 3.3z" clip-rule="evenodd"/><radialGradient id="SVGID_11_" cx="213.41" cy="190.171" r="88.531" gradientTransform="translate(-1.032 -1.032) scale(1.0081)" gradientUnits="userSpaceOnUse"><stop offset="0" stop-color="#fff" stop-opacity=".6"/><stop offset="1" stop-color="#fff" stop-opacity="0"/></radialGradient><path fill="url(#SVGID_11_)" fill-rule="evenodd" d="M202.37 111.88a93.314 93.314 0 0 0-8.71-4.66c-.23 1.4-.5 2.81-.79 4.21 18.78 11.44 26.53 29.31 25.33 47.59 2.9 3.61 5.24 7.39 6.92 11.19.17-.69.34-1.37.49-2.06 4.43-21.75-2.22-43.51-23.24-56.27zm-40.05-14.06c-3.26-.49-6.54-.86-9.82-1.15 3.38.64 6.74 1.39 10.08 2.26-.08-.37-.16-.75-.26-1.11zm27.52 110.55c-16.11 11.02-36.72 13.22-56.63 1.13-12.83-7.79-23.69-18.59-32.78-30.44 10.25 15.46 23.22 29.79 39.3 39.08 9.1 5.25 18.13 7.47 26.77 7.25 12.49-.56 24.43-6 34.45-14.84.65-.58 1.29-1.18 1.92-1.79-4.09.43-8.49.3-13.03-.39z" clip-rule="evenodd"/><radialGradient id="SVGID_12_" cx="202.707" cy="176.637" r="33.894" gradientTransform="translate(-1.032 -1.032) scale(1.0081)" gradientUnits="userSpaceOnUse"><stop offset="0" stop-color="#70b5e3"/><stop offset="1" stop-color="#005379"/></radialGradient><path fill="url(#SVGID_12_)" fill-rule="evenodd" d="M231.54 199.6c5.51-9.54-.05-23.07-12.42-30.21-12.38-7.14-26.87-5.19-32.38 4.35-5.52 9.55.05 23.07 12.42 30.22 12.37 7.13 26.87 5.18 32.38-4.36z" clip-rule="evenodd"/><linearGradient id="SVGID_13_" x1="128.068" x2="128.068" y1="-12.416" y2="138.439" gradientUnits="userSpaceOnUse"><stop offset="0" stop-color="#4a7e3b"/><stop offset="1" stop-color="#2e4f27"/></linearGradient><path fill="url(#SVGID_13_)" d="M94.44 120.43c1.04 5.08 2.58 10.16 4.49 15.19.41 1.08.06 2.25-.87 2.93l-16.79 12.33c-.61.45-1.32.6-2.06.42-.75-.17-1.32-.61-1.67-1.28-2.49-4.76-4.76-9.59-6.77-14.48 2.38-3.58 5.74-6.62 9.98-9.06 4.32-2.51 8.93-4.49 13.69-6.05zm57.16-84.56c-3.48-11.9-12.69-20.42-23.53-20.42-10.82 0-20.05 8.52-23.52 20.42-25.02 7.04-43.47 25.81-43.47 54.88 0 3.57.21 7.17.61 10.75 9.61-4.17 19.86-6.89 30.25-8.52v.01c6.35-1 12.85-1.61 19.42-1.88.76-.04 1.43.24 1.95.8s.75 1.24.66 2l-2.27 20.7c-.13 1.15-.97 2.04-2.1 2.22-3.33.54-6.6 1.21-9.78 2.04 5.81 7.07 16.3 11.79 28.27 11.79 11.95 0 22.43-4.71 28.25-11.76-3.22-.84-6.53-1.53-9.9-2.07-1.14-.18-1.97-1.07-2.1-2.22l-2.28-20.7c-.09-.76.14-1.45.67-2 .52-.55 1.19-.83 1.95-.8 5.28.22 10.51.65 15.67 1.34 1.65 3.26 2.61 6.95 2.88 10.99l.01.09v.02l.01.1.01.1.01.1v.14l.01.08.01.1v.11l.01.11v.22l.01.1V105.04l.01.11v1.66l-.01.23v.23l-.01.45v.01l-.01.23v.23l-.01.01-.02.45v.01l-.02.45v.01l-.03.46v.01c-.01.3-.04.6-.06.91v.01l-.03.45v.02l-.04.44-.01.03c-.25 3.06-.71 6.09-1.33 9.1-1.05 5.06-2.58 10.13-4.49 15.14-.41 1.08-.06 2.25.87 2.93l16.79 12.33c.61.45 1.32.6 2.06.42.75-.17 1.31-.61 1.67-1.28 9.96-19.06 16.46-39.28 16.46-59.26-.04-29.15-18.49-47.92-43.5-54.96zm11.51 74.56l.06-.91-.06.91z"/><radialGradient id="SVGID_14_" cx="128.815" cy="124.884" r="52.833" gradientTransform="matrix(-.0307 -1.0076 .9363 -.0286 15.853 258.219)" gradientUnits="userSpaceOnUse"><stop offset="0" stop-color="#96cc80"/><stop offset="1" stop-color="#528642"/></radialGradient><path fill="url(#SVGID_14_)" fill-rule="evenodd" d="M95.74 83.72l1.54 8.51c4.64-.57 9.33-.94 14.06-1.13.76-.04 1.43.24 1.95.8s.75 1.24.66 2l-2.27 20.7c-.13 1.15-.97 2.04-2.1 2.22-1.38.22-2.75.47-4.1.74 1.07 1.01 2.24 1.93 3.45 2.72 5.59 3.66 12.51 5.32 19.14 5.32 6.62 0 13.54-1.66 19.13-5.32 1.2-.79 2.37-1.7 3.44-2.7-1.4-.28-2.8-.53-4.22-.76-1.14-.18-1.97-1.07-2.1-2.22l-2.28-20.7c-.09-.76.14-1.45.67-2 .52-.55 1.19-.83 1.95-.8 4.78.2 9.52.58 14.2 1.15l1.55-8.53c-2.69-2.97-5.96-5.38-9.65-7.26l-22.68 21.76-22.68-21.76c-3.69 1.88-6.96 4.29-9.66 7.26z" clip-rule="evenodd"/><radialGradient id="SVGID_15_" cx="128.068" cy="64.586" r="84.914" gradientTransform="translate(-1.032 -1.032) scale(1.0081)" gradientUnits="userSpaceOnUse"><stop offset="0" stop-color="#96cc80"/><stop offset="1" stop-color="#4a7e3b"/></radialGradient><path fill="url(#SVGID_15_)" fill-rule="evenodd" d="M80.74 126.46c-2.39 1.37-4.49 2.94-6.29 4.68 1.86 4.75 3.96 9.39 6.22 13.9l12.86-9.44c-1.58-4.38-2.92-8.87-3.9-13.44a71.346 71.346 0 0 0-8.89 4.3zM66.12 90.75c0 2.94.15 5.86.43 8.77 7.54-2.84 15.41-4.86 23.38-6.22 2.85-7.67 8.39-13.25 15.45-16.83l-5.98-5.75 4.2-7.29-6.8-1.82c1.77-8.08 4.92-15.22 9.01-20.84-22.56 6.37-39.69 23.02-39.69 49.98zm84.2-49.98c4.09 5.62 7.23 12.77 9.01 20.84l-6.81 1.82 4.21 7.29-5.99 5.75c10.44 5.3 17.58 14.96 17.58 29.36 0 10.15-2.27 20.24-5.72 29.79l12.87 9.44c8.44-16.79 14.54-35.46 14.54-54.3 0-26.97-17.12-43.62-39.69-49.99z" clip-rule="evenodd"/><radialGradient id="SVGID_16_" cx="128.75" cy="45.626" r="83.753" gradientTransform="translate(-1.032 -1.032) scale(1.0081)" gradientUnits="userSpaceOnUse"><stop offset="0" stop-color="#fff" stop-opacity=".6"/><stop offset="1" stop-color="#fff" stop-opacity="0"/></radialGradient><path fill="url(#SVGID_16_)" fill-rule="evenodd" d="M74.45 131.14c1.54 3.93 3.25 7.78 5.07 11.55-1.57-4.05-2.98-8.18-4.19-12.36-.3.27-.6.54-.88.81zm115.49-40.48c0-18.58-8.64-32.81-21.87-41.9-5.29-3.5-11.29-6.17-17.75-7.99 2.36 3.24 4.4 6.99 6.05 11.14 17.07 8.26 29.01 24.48 29.01 47.18 0 15.08-3.62 30.04-9.07 44.01 7.97-16.3 13.63-34.29 13.63-52.44zM68.39 74.78c-1.47 4.85-2.26 10.17-2.26 15.97 0 2.94.15 5.86.43 8.77 1.34-.51 2.7-.98 4.06-1.43.35-22.26 12.28-38.16 29.19-46.27 1.64-4.11 3.67-7.83 6.02-11.04-8.56 2.41-16.33 6.31-22.68 11.68-6.81 5.86-11.97 13.36-14.76 22.32z" clip-rule="evenodd"/><linearGradient id="SVGID_17_" x1="128.07" x2="128.07" y1="91.075" y2="59.121" gradientUnits="userSpaceOnUse"><stop offset="0" stop-color="#96cc80"/><stop offset="1" stop-color="#4a7e3b"/></linearGradient><path fill="url(#SVGID_17_)" fill-rule="evenodd" d="M103.25 50.17a59.44 59.44 0 0 0-3.42 9.63l6.44 1.73c-1.56-3.43-2.61-7.27-3.02-11.36zm3.64 12.64l-4.31 7.46 25.49 24.46 25.49-24.46-4.31-7.46c-4.42 8.7-12.25 14.48-21.18 14.48s-16.76-5.78-21.18-14.48zm42.98-1.28l6.43-1.73c-.85-3.24-1.98-6.51-3.41-9.63-.41 4.09-1.46 7.93-3.02 11.36z" clip-rule="evenodd"/><path d="M139.75 73.72l-11.68 21.01-11.68-21.01c3.48 2.29 7.46 3.58 11.68 3.58 4.22-.01 8.2-1.3 11.68-3.58z" class="st6"/><radialGradient id="SVGID_18_" cx="124.286" cy="38.675" r="30.56" gradientTransform="matrix(1.0081 0 0 1.3578 -1.032 -14.557)" gradientUnits="userSpaceOnUse"><stop offset="0" stop-color="#92cb7b"/><stop offset=".868" stop-color="#276f37"/><stop offset="1" stop-color="#92cb7b"/></radialGradient><path fill="url(#SVGID_18_)" fill-rule="evenodd" d="M128.07 72.24c10.99 0 19.96-11.62 19.96-25.87s-8.96-25.87-19.96-25.87c-10.99 0-19.95 11.62-19.95 25.87s8.96 25.87 19.95 25.87z" clip-rule="evenodd"/><path d="M139.98 98.14a2.513 2.513 0 0 0-2.5-2.24c-6.47-.04-12.96.23-19.38.75a2.53 2.53 0 0 0-2.32 2.33l-1 13.47c-.06.74.18 1.4.7 1.93.52.54 1.16.8 1.91.77 7.16-.23 14.39-.08 21.48.64.79.07 1.49-.18 2.05-.74.55-.57.8-1.27.71-2.05l-1.65-14.86zm-38.65 44.83c-.35-.65-.9-1.09-1.62-1.26-.73-.18-1.41-.06-2.02.36l-11.16 7.6c-1.03.71-1.4 2.04-.86 3.17 2.77 5.82 5.78 11.58 9.04 17.17a2.505 2.505 0 0 0 3.2 1.03l13.68-5.99a2.41 2.41 0 0 0 1.42-1.64c.21-.77.08-1.51-.38-2.15-4.17-5.78-7.93-11.97-11.3-18.29zm68.15 6.7l-11.16-7.6c-.61-.42-1.31-.54-2.02-.36-.72.17-1.27.6-1.62 1.26-3.37 6.32-7.13 12.51-11.29 18.29-.46.64-.59 1.38-.39 2.15.21.76.7 1.33 1.43 1.64l13.69 5.99c1.18.52 2.54.08 3.19-1.03 3.27-5.59 6.28-11.35 9.04-17.17.53-1.13.17-2.46-.87-3.17z" class="st19"/><radialGradient id="SVGID_19_" cx="136.336" cy="110.261" r="22.397" gradientTransform="translate(-1.032 -1.032) scale(1.0081)" gradientUnits="userSpaceOnUse"><stop offset="0" stop-color="#e98a23"/><stop offset="1" stop-color="#d75328"/></radialGradient><path fill="url(#SVGID_19_)" fill-rule="evenodd" d="M117.3 112.64l.91-12.17c.06-.75.65-1.34 1.39-1.4 5.49-.41 11-.64 16.5-.64.78 0 1.42.57 1.51 1.34l1.3 11.65c.06.46-.09.89-.42 1.23-.33.33-.75.49-1.22.45-6.63-.57-13.32-.69-19.97-.46z" clip-rule="evenodd"/><radialGradient id="SVGID_20_" cx="98.195" cy="148.153" r="16.765" gradientTransform="translate(-1.032 -1.032) scale(1.0081)" gradientUnits="userSpaceOnUse"><stop offset="0" stop-color="#e98a23"/><stop offset="1" stop-color="#d75328"/></radialGradient><path fill="url(#SVGID_20_)" fill-rule="evenodd" d="M99.89 145.63c2.92 5.35 6.1 10.58 9.61 15.6.27.38.34.82.22 1.27-.13.46-.42.79-.86.98l-10.74 4.7c-.71.31-1.53.05-1.92-.63-2.75-4.77-5.31-9.65-7.69-14.61a1.51 1.51 0 0 1 .51-1.91l8.7-5.92c.37-.26.78-.33 1.21-.23.42.11.76.36.96.75z" clip-rule="evenodd"/><linearGradient id="SVGID_21_" x1="147.636" x2="166.107" y1="162.208" y2="152.123" gradientUnits="userSpaceOnUse"><stop offset="0" stop-color="#e98a23"/><stop offset=".737" stop-color="#d75328"/><stop offset="1" stop-color="#d75328"/></linearGradient><path fill="url(#SVGID_21_)" fill-rule="evenodd" d="M156.1 145.63c-2.91 5.35-6.1 10.58-9.6 15.6-.27.38-.34.82-.21 1.27.13.46.42.79.85.98l10.75 4.7c.71.31 1.53.05 1.92-.63 2.75-4.77 5.31-9.65 7.69-14.61a1.5 1.5 0 0 0-.51-1.91l-8.7-5.92c-.37-.26-.78-.33-1.21-.23-.44.11-.77.36-.98.75z" clip-rule="evenodd"/><linearGradient id="SVGID_22_" x1="128" x2="128" y1="91.49" y2="180.342" gradientUnits="userSpaceOnUse"><stop offset="0" stop-color="#a1a1a1"/><stop offset="1" stop-color="#696969"/></linearGradient><linearGradient id="SVGID_23_" x1="79.779" x2="176.221" y1="136.009" y2="136.009" gradientUnits="userSpaceOnUse"><stop offset="0" stop-color="#666"/><stop offset="1" stop-color="#696969"/></linearGradient><path fill="url(#SVGID_22_)" stroke="url(#SVGID_23_)" stroke-miterlimit="10" d="M128 88.29c-26.36 0-47.72 21.37-47.72 47.72 0 26.35 21.37 47.72 47.72 47.72 26.36 0 47.72-21.37 47.72-47.72 0-26.36-21.36-47.72-47.72-47.72z"/><path d="M128 181.19c-24.95 0-45.18-20.23-45.18-45.18S103.05 90.83 128 90.83s45.18 20.23 45.18 45.18-20.23 45.18-45.18 45.18z" class="st19"/><path fill="#d9a629" d="M146.94 142.66c0 6.12-2.76 11.66-7.51 15.49-5.36 4.33-12.45 6.07-19.23 6.07-3.29 0-6.69-.6-9.75-1.88l.67-7.26c2.63.94 5.51 1.34 8.14 1.34 7.44 0 15.36-4.23 15.36-12.39 0-4.78-3-8.22-7.68-8.9-4.6-.67-10.13 1.08-13.96 2.28l2.74-32.17h28.92l-.91 9.68H126.3l-1.19 11.71c10.93-2.07 21.83 4.56 21.83 16.03z"/><path fill="#419cff" fill-rule="evenodd" d="M219.8 3.67l31.66 30.84S256 38.25 256 40.6l-.01 53.4.01 5.33L156.67 0l3.66.04 54.16-.03c1.95 0 5.31 3.66 5.31 3.66z" clip-rule="evenodd"/><g><path d="M218.19 22.63l-8.88 5.56 5.05-9.4-1.77-1.77-9.29 5 5.45-8.84-2.29-2.29-7.6 13.32 1.93 1.93 9.39-4.98-4.94 9.43 1.93 1.93 13.31-7.61-2.29-2.28zm.22 17.78c-.77-.77-1.15-1.65-1.16-2.66 0-1.01.39-1.98 1.18-2.91l6.83 6.83.95-.95c1.66-1.66 2.56-3.34 2.69-5.02.13-1.69-.51-3.24-1.94-4.66-.9-.9-1.94-1.48-3.12-1.75-1.19-.27-2.39-.2-3.62.22-1.22.42-2.36 1.15-3.4 2.19l-.29.29c-1.56 1.56-2.35 3.27-2.36 5.13-.01 1.86.73 3.54 2.21 5.03.87.87 1.83 1.48 2.87 1.84 1.04.35 2.09.43 3.13.22l-.06-2.47c-1.52.19-2.83-.25-3.91-1.33zm4.44-8.38c.85-.05 1.59.24 2.24.88.65.65.96 1.36.92 2.13-.04.77-.42 1.57-1.16 2.41l-.17.17-4.48-4.48c.92-.68 1.8-1.06 2.65-1.11zm15.89 10.77c-1.15-1.15-2.46-1.66-3.93-1.54l5.39-5.39-2.35-2.35L223 48.37l2.13 2.13 1.25-1.02c-.2 1.57.31 2.96 1.54 4.19 1.27 1.27 2.75 1.79 4.43 1.55 1.69-.24 3.34-1.16 4.96-2.79l.14-.14c1.7-1.7 2.66-3.39 2.88-5.07.22-1.67-.31-3.14-1.59-4.42zm-1.62 3.93c-.17.97-.82 2.02-1.95 3.15l-.3.3c-1.12 1.1-2.16 1.72-3.1 1.87-.95.15-1.79-.15-2.52-.88-1.02-1.02-1.29-2.2-.8-3.53l4.31-4.31c1.3-.48 2.46-.21 3.48.81.75.75 1.05 1.62.88 2.59z" class="st19"/></g></svg>