<svg xmlns="http://www.w3.org/2000/svg" width="20" height="20"><path fill="#565D66" fill-rule="evenodd" d="M12.826 14.414l-1.017-.458a.14.14 0 0 1-.08-.095.15.15 0 0 1 .02-.125c.333-.489.633-.999.909-1.521a.143.143 0 0 1 .092-.073.138.138 0 0 1 .115.021l.823.578a.15.15 0 0 1 .048.186c-.225.484-.467.96-.728 1.425a.14.14 0 0 1-.182.062zm-.169.996a15.53 15.53 0 0 1-.831 1.188 3.063 3.063 0 0 1-.686-.305 6.253 6.253 0 0 1-.767-.538c.322-.301.623-.628.902-.971l1.382.626zm3.332-1.511l-2.319-.282c.116-.231.228-.464.336-.699a.25.25 0 0 0-.082-.309l-1.056-.741a.223.223 0 0 0-.192-.036.23.23 0 0 0-.153.123c-.32.617-.676 1.221-1.069 1.785a.25.25 0 0 0 .098.369l1.296.584c.112.051.24.008.301-.101.119-.207.233-.417.344-.629l1.391 1.909c.069 1.082 1.196 2.443 2.2 2.5-1.59 1.595-3.765 2.23-5.975.915-1.544-.919-2.785-2.345-3.762-3.877l1.383-.626c.618.757 1.339 1.441 2.17 1.936.764.454 1.507.559 2.187.408l-.642-.561c.266-.364.519-.743.76-1.134a.248.248 0 0 0 .027-.204.24.24 0 0 0-.133-.154l-1.805-.817a.233.233 0 0 0-.281.07c-.08.102-.162.2-.244.299a2.24 2.24 0 0 1-.053-.397c-.037-.65.155-1.315.469-1.874.314-.561.777-1.064 1.341-1.357.12-.062.246-.115.375-.157a9.27 9.27 0 0 1-.138.396.248.248 0 0 0 .082.287l1.589 1.201a.225.225 0 0 0 .196.042.23.23 0 0 0 .158-.126c.212-.416.406-.838.58-1.263l.778.288a2.882 2.882 0 0 0-.517-.967c.269-.752.471-1.513.591-2.276.256.12.508.253.752.398 2.209 1.314 2.764 3.573 2.218 5.791-.572-.885-2.563-.991-3.201-.714zm-2.742-6.348c.06.244.09.504.09.781 0 .315-.024.628-.065.939a9.578 9.578 0 0 0-1.274-.321l-.165-1.548c.47.028.943.076 1.414.149zm-2.338.191l.122 1.137a.143.143 0 0 1-.04.12.137.137 0 0 1-.114.044 15.112 15.112 0 0 0-1.891-.046l.085-1.187a.147.147 0 0 1 .133-.137c.519-.04 1.041-.062 1.562-.062.074 0 .134.056.143.131zm2.365 3.495c.326-.93.54-1.915.54-2.905 0-.754-.222-1.602-.75-2.155l-.146.831a16.96 16.96 0 0 0-1.343-.113.228.228 0 0 0-.184.078.247.247 0 0 0-.064.196l.216 2.018a.24.24 0 0 0 .199.217c.135.023.267.047.399.075a2.382 2.382 0 0 1-.325.263c-.529.357-1.184.519-1.81.519-.628 0-1.282-.162-1.811-.519a2.292 2.292 0 0 1-.327-.266c.127-.025.256-.05.387-.072a.24.24 0 0 0 .199-.217l.216-2.018a.246.246 0 0 0-.063-.196.231.231 0 0 0-.185-.078c-.448.021-.891.056-1.33.111l-.146-.829a3.157 3.157 0 0 0-.55.934 11.77 11.77 0 0 0-2.213.606 9.028 9.028 0 0 1-.04-.855c0-2.629 1.62-4.254 3.757-4.875-.352.579.065 2.718 1 3.214l.901 2.188c-.247.012-.494.028-.74.049a.24.24 0 0 0-.218.227l-.096 1.314a.245.245 0 0 0 .067.188c.048.053.11.078.18.076a14.818 14.818 0 0 1 2.033.062.231.231 0 0 0 .194-.073.243.243 0 0 0 .068-.2l-.157-1.448a.243.243 0 0 0-.236-.22c-.224-.001-.446.002-.67.008l.885-2.171c.859-.504 1.443-2.502 1-3.214 2.136.621 3.756 2.246 3.756 4.875 0 1.838-.577 3.658-1.375 5.296l-1.218-.921zm-3.268-6.18c-1.043 0-1.889-1.13-1.889-2.524 0-1.392.846-2.523 1.889-2.523 1.042 0 1.888 1.131 1.888 2.523 0 1.394-.846 2.524-1.888 2.524zm-5.075 5.745c.171-.169.369-.322.595-.456.27-.161.552-.299.842-.419.093.446.219.884.369 1.31l-1.218.921c-.214-.44-.413-.893-.588-1.356zm2.202 1.361a.14.14 0 0 1 .206.052c.276.522.577 1.032.909 1.521a.147.147 0 0 1 .02.125.14.14 0 0 1-.08.095l-1.017.458a.14.14 0 0 1-.182-.062 21.447 21.447 0 0 1-.728-1.425.15.15 0 0 1 .048-.186l.824-.578zm.874-3.213c-.945.173-1.879.474-2.712.969-.763.454-1.222 1.063-1.435 1.744l.78-.288c.175.426.372.849.583 1.267a.229.229 0 0 0 .157.126.226.226 0 0 0 .196-.042l1.589-1.201a.247.247 0 0 0 .082-.287 11.31 11.31 0 0 1-.136-.391c.125.04.245.092.361.152.564.293 1.026.796 1.341 1.357.313.559.505 1.224.469 1.874a2.444 2.444 0 0 1-.054.397c-.082-.099-.164-.197-.244-.299a.233.233 0 0 0-.281-.07l-1.804.817a.236.236 0 0 0-.133.154.247.247 0 0 0 .026.204c.241.391.494.77.76 1.134l-.641.56c.349.077.712.088 1.087.021a12.223 12.223 0 0 0 1.612 1.663c-.231.171-.469.33-.714.476-2.209 1.315-4.385.68-5.975-.915 1.244-.216 2.159-1.677 2.192-2.5l1.391-1.909c.111.212.226.422.344.629a.232.232 0 0 0 .301.101l1.296-.584a.23.23 0 0 0 .134-.16.24.24 0 0 0-.036-.209 15.916 15.916 0 0 1-1.068-1.785.232.232 0 0 0-.154-.123.224.224 0 0 0-.192.036l-1.056.741a.25.25 0 0 0-.082.309c.108.235.22.468.336.699l-2.319.282c-.732-.304-2.471-.224-3.194.714-.544-2.218.01-4.477 2.22-5.791 1.543-.919 3.362-1.314 5.137-1.42L8.007 8.95zm-6.631 5.584c1.17-.698 2.542-.508 3.063.423.522.931-.005 2.25-1.176 2.947-1.17.697-2.542.507-3.063-.424-.522-.93.005-2.25 1.176-2.946zm14.182.423c.521-.931 1.893-1.121 3.064-.423 1.171.696 1.697 2.016 1.175 2.946-.521.931-1.893 1.121-3.063.424-1.171-.697-1.697-2.016-1.176-2.947z"/></svg>